<svg width="462" height="115" viewBox="0 0 462 115" fill="none" xmlns="http://www.w3.org/2000/svg">
<path d="M0.27002 57.44L56.97 0.75H0.27002V57.44Z" fill="#00367C"/>
<path d="M56.97 114.13L0.27002 57.4399V114.13H56.97Z" fill="#00367C"/>
<path d="M56.97 114.13L113.66 57.4399V114.13H56.97Z" fill="#00367C"/>
<path d="M113.66 57.44L56.97 0.75H113.66V57.44Z" fill="#51B848"/>
<path d="M56.97 0.75L0.27002 57.44H56.97V0.75Z" fill="url(#paint0_linear_113_3256)"/>
<path d="M0.27002 57.4399L56.97 114.13V57.4399H0.27002Z" fill="url(#paint1_linear_113_3256)"/>
<path d="M113.66 57.4399L56.97 114.13V57.4399H113.66Z" fill="white"/>
<path d="M113.66 57.44L56.97 0.75V57.44H113.66Z" fill="url(#paint2_linear_113_3256)"/>
<path d="M428.65 18.3002H408.3V22.3801H454.26V18.3002H434.43V16.0201H459.07V11.6602H434.43V8.41016H428.65V11.6602H403.76V16.0201H428.65V18.3002Z" fill="#00367C"/>
<path d="M404.27 37.34V41.18H454.26V37.34H431.64V34.55H448.67V30.71H408.05V34.55H425.6V37.34H404.27Z" fill="#00367C"/>
<path d="M461.61 47.7402V43.4502H400.96V47.7402H449.16V50.7902H430.41V54.8902H434.94L433.06 56.3002L433.26 56.5602C435.11 58.9402 436.58 61.2802 437.69 63.5302L441.96 60.9602C440.6 58.7502 438.83 56.5302 437.18 54.8902H449.14V61.3602C449.14 62.5302 448.74 63.0702 447.55 63.1802C446.46 63.2602 443.78 63.3102 441.32 63.1302L442.24 67.8902C445.16 68.0702 449.64 68.1302 451.24 67.8302C454.15 67.3502 455.08 65.5302 455.08 62.2802V54.8902H459.33V50.7902H455.08V47.7402H461.61Z" fill="#00367C"/>
<path d="M424.26 50.79H405.15V62.11C405.15 64.1 406.75 65.69 408.72 65.69H427.83V54.37C427.84 52.39 426.24 50.79 424.26 50.79ZM422.28 61.36H410.69V55.1H422.28V61.36Z" fill="#00367C"/>
<path d="M451.2 31.3102L454.94 34.2701C457.5 31.7001 460.55 28.1302 460.91 27.6202C461.86 26.2602 461.38 24.4102 458.76 24.4102H402.45V28.7001H453.94C453.14 29.4801 452.23 30.3401 451.2 31.3102Z" fill="#00367C"/>
<path d="M381.37 68.5201L381.36 61.2601C355.51 48.9601 354.09 25.8901 354.01 22.9001C354.01 22.7501 354.01 22.6401 354.01 22.5901L354 8.3501H347.07L347.08 22.6101C347.08 23.6901 346.79 48.4201 319.66 61.3001V68.4001L319.71 68.5201C338.03 60.8701 346.56 48.5601 350.54 38.6001C354.52 48.5801 363.04 60.8801 381.37 68.5201Z" fill="#00367C"/>
<path d="M185.86 27.7H160.97V32.41H185.86V27.7ZM186.75 56.98L180.68 58.01L182.94 51.25H178.03L175.42 58.9L170.79 59.66C170.53 57.13 170.02 54.35 168.84 51.25H163.64C164.81 53.98 165.66 57.67 165.97 60.37C163.19 60.79 161.05 61.1 159.03 61.35V67.15C165.84 65.91 179.03 62.72 186.76 61.09V56.98H186.75ZM164.54 25.01H185.86V10.71H180.57V20.34H176.07V8.75H170.78V20.34H166.27V10.71H160.98V21.45C160.98 23.41 162.57 25.01 164.54 25.01ZM164.54 49.4H185.86V38.61C185.86 36.64 184.27 35.05 182.3 35.05H160.97V45.84C160.98 47.8 162.57 49.4 164.54 49.4ZM166.49 39.34H180.33V45.07H166.49V39.34ZM213.35 62.71C212.06 62.58 211.64 61.99 211.64 60.75L211.65 14.27C211.65 12.3 210.05 10.71 208.09 10.71H193.25V39.73C193.25 50.12 192.44 60.38 185.75 67.7H191.74C198.55 59.86 198.79 51.1 198.79 39.73V15.48H205.51L205.54 61.73C205.54 65.2 206.52 67.16 209.65 67.68C211.36 68 215.9 67.94 219.03 67.74L220.01 62.64C217.39 62.84 214.52 62.77 213.35 62.71Z" fill="#00367C"/>
<path d="M301.34 39.56H285.94V19.56H295.96V14.7H285.94V8.75H280.13V14.7H260.82V8.75H255.02V14.7H245V19.56H255.02V39.56H239.61V44.43H253.89C251.76 48.3 245.57 52.79 239.61 54.58V60.06C246.93 57.81 251.57 55.01 254.56 52.34V56.4H267.42V62.81H245.55V67.68H295.4V62.81H273.52V56.4H286.38V52.34C289.37 55.01 294.02 57.81 301.33 60.06V54.58C295.37 52.79 289.18 48.3 287.05 44.43H301.33V39.56H301.34ZM260.88 19.55H280.07V22.96H260.88V19.55ZM260.88 27.84H280.07V31.28H260.88V27.84ZM260.88 36.14H280.07V39.55H260.88V36.14ZM273.56 51.54V46.51H267.39V51.54H255.43C258.55 48.56 259.99 45.92 260.6 44.43H280.35C280.96 45.92 282.39 48.56 285.52 51.54H273.56Z" fill="#00367C"/>
<path d="M257.49 89.71L259.05 86.98H247.1V106.2H258.65V103.46H251.09V97.49H257.35V94.77H251.09V89.71H257.49Z" fill="#00367C"/>
<path d="M233.16 106.19H237.17V98.53H243.41V95.78H237.17V89.72H243.53L245.1 86.98H233.16V106.19Z" fill="#00367C"/>
<path d="M215.58 103.47V86.98H211.58V106.2H223.15V103.47H215.58Z" fill="#00367C"/>
<path d="M229.73 86.98H225.73V106.2H229.73V86.98Z" fill="#00367C"/>
<path d="M186.76 103.19C185.97 103.52 185.16 103.62 184.15 103.62C180.9 103.62 177.72 100.99 177.71 96.5101C177.72 92.2101 180.48 89.5101 184.53 89.5001C185.98 89.5001 187.59 89.9601 188.61 90.5001L188.69 90.5501L189.99 88.1401L189.93 88.0901C188.65 87.2601 186.54 86.6101 184.43 86.6001C177.65 86.6101 173.47 91.1901 173.46 96.4501C173.47 102.11 177.68 106.51 184.32 106.52C186.52 106.52 188.68 106.03 190.73 105.34L190.79 105.32V97.2901H186.77V103.19H186.76ZM193.96 86.9301V106.19H197.98V86.9301H193.96ZM173.7 86.9301H169.59L163.03 95.1101V86.9301H159.02V106.19H163.03V96.6301L170.04 106.19H174.97L166.57 95.5501L173.7 86.9301Z" fill="#00367C"/>
<defs>
<linearGradient id="paint0_linear_113_3256" x1="28.7226" y1="29.1968" x2="57.684" y2="58.1582" gradientUnits="userSpaceOnUse">
<stop stop-color="#E83E0B"/>
<stop offset="0.2" stop-color="#EA5006"/>
<stop offset="0.52" stop-color="#F08300"/>
<stop offset="1" stop-color="#FFDE00"/>
</linearGradient>
<linearGradient id="paint1_linear_113_3256" x1="28.7227" y1="85.6845" x2="57.6851" y2="56.7221" gradientUnits="userSpaceOnUse">
<stop stop-color="#E83E0B"/>
<stop offset="0.2" stop-color="#EA5006"/>
<stop offset="0.52" stop-color="#F08300"/>
<stop offset="1" stop-color="#FFDE00"/>
</linearGradient>
<linearGradient id="paint2_linear_113_3256" x1="85.5267" y1="28.8809" x2="56.9672" y2="57.4405" gradientUnits="userSpaceOnUse">
<stop stop-color="#003483"/>
<stop offset="0.2" stop-color="#003686"/>
<stop offset="0.52" stop-color="#0057A4"/>
<stop offset="1" stop-color="#009CE5"/>
</linearGradient>
</defs>
</svg>
